<?xml version="1.0" encoding="UTF-8" standalone="no"?>
<!-- Generator: Adobe Illustrator 19.1.0, SVG Export Plug-In . SVG Version: 6.00 Build 0)  -->

<svg
   xmlns:dc="http://purl.org/dc/elements/1.1/"
   xmlns:cc="http://creativecommons.org/ns#"
   xmlns:rdf="http://www.w3.org/1999/02/22-rdf-syntax-ns#"
   xmlns:svg="http://www.w3.org/2000/svg"
   xmlns="http://www.w3.org/2000/svg"
   xmlns:sodipodi="http://sodipodi.sourceforge.net/DTD/sodipodi-0.dtd"
   xmlns:inkscape="http://www.inkscape.org/namespaces/inkscape"
   version="1.1"
   id="Layer_1"
   x="0px"
   y="0px"
   viewBox="0 0 164 39.999999"
   xml:space="preserve"
   sodipodi:docname="dpi-logo-white.svg"
   width="164"
   height="40"
   inkscape:version="0.92.2 5c3e80d, 2017-08-06"><metadata
     id="metadata143"><rdf:RDF><cc:Work
         rdf:about=""><dc:format>image/svg+xml</dc:format><dc:type
           rdf:resource="http://purl.org/dc/dcmitype/StillImage" /><dc:title /></cc:Work></rdf:RDF></metadata><defs
     id="defs141" /><sodipodi:namedview
     pagecolor="#ffffff"
     bordercolor="#666666"
     borderopacity="1"
     objecttolerance="10"
     gridtolerance="10"
     guidetolerance="10"
     inkscape:pageopacity="0"
     inkscape:pageshadow="2"
     inkscape:window-width="2560"
     inkscape:window-height="1396"
     id="namedview139"
     showgrid="false"
     fit-margin-top="0"
     fit-margin-left="0"
     fit-margin-right="0"
     fit-margin-bottom="0"
     inkscape:zoom="3.8789858"
     inkscape:cx="94.532164"
     inkscape:cy="46.214761"
     inkscape:window-x="0"
     inkscape:window-y="0"
     inkscape:window-maximized="0"
     inkscape:current-layer="Layer_1" /><style
     type="text/css"
     id="style2">
	.st0{fill:#15397F;}
	.st1{fill:none;}
	.st2{fill:#FFFFFF;}
	.st3{fill:#E3173E;}
</style><g
     id="g62"
     transform="matrix(0.43813892,0,0,0.43813892,-9.8052254,-9.8020916)"><path
       class="st0"
       d="m 146.9,57.6 h 7.6 c 6.4,0 10.8,4.4 10.8,10.1 v 0.1 c 0,5.7 -4.4,10.2 -10.8,10.2 h -7.6 z m 7.6,17.1 c 4.3,0 7,-2.9 7,-6.8 v -0.1 c 0,-4 -2.8,-6.9 -7,-6.9 h -4 v 13.8 z"
       id="path4"
       inkscape:connector-curvature="0"
       style="fill:#ffffff" /><path
       class="st0"
       d="m 167.7,70.3 v 0 c 0,-4.4 3.1,-8 7.5,-8 4.9,0 7.3,3.8 7.3,8.2 0,0.3 0,0.6 -0.1,1 h -11.3 c 0.4,2.5 2.1,3.9 4.4,3.9 1.7,0 2.9,-0.6 4.1,-1.8 l 2.1,1.8 c -1.5,1.7 -3.5,2.9 -6.3,2.9 -4.3,0 -7.7,-3.2 -7.7,-8 z M 179,69.2 c -0.2,-2.3 -1.6,-4 -3.9,-4 -2.1,0 -3.7,1.7 -4,4 z"
       id="path6"
       inkscape:connector-curvature="0"
       style="fill:#ffffff" /><path
       class="st0"
       d="m 185.4,62.6 h 3.5 v 2.6 c 1.1,-1.6 2.7,-2.9 5.2,-2.9 3.6,0 7.1,2.9 7.1,7.9 v 0.1 c 0,5.1 -3.5,7.9 -7.1,7.9 -2.5,0 -4.1,-1.3 -5.2,-2.7 v 7 h -3.5 z m 12.3,7.7 v 0 c 0,-3 -2,-5 -4.4,-5 -2.4,0 -4.5,2 -4.5,4.9 v 0.1 c 0,3 2.1,4.9 4.5,4.9 2.4,0 4.4,-1.9 4.4,-4.9 z"
       id="path8"
       inkscape:connector-curvature="0"
       style="fill:#ffffff" /><path
       class="st0"
       d="M 213.4,77.9 V 76 c -1,1.2 -2.6,2.2 -5,2.2 -2.9,0 -5.5,-1.7 -5.5,-4.7 v -0.1 c 0,-3.4 2.6,-5 6.2,-5 1.9,0 3,0.3 4.2,0.6 v -0.3 c 0,-2.1 -1.3,-3.3 -3.8,-3.3 -1.7,0 -3,0.4 -4.4,1 l -1,-2.8 c 1.7,-0.8 3.3,-1.3 5.8,-1.3 4.5,0 6.7,2.4 6.7,6.5 v 9.1 z m 0.1,-6.4 c -0.9,-0.3 -2.1,-0.6 -3.5,-0.6 -2.2,0 -3.5,0.9 -3.5,2.4 v 0.1 c 0,1.5 1.3,2.3 3,2.3 2.3,0 4.1,-1.3 4.1,-3.2 v -1 z"
       id="path10"
       inkscape:connector-curvature="0"
       style="fill:#ffffff" /><path
       class="st0"
       d="m 220.5,62.6 h 3.5 v 3.5 c 1,-2.3 2.7,-3.9 5.4,-3.7 V 66 h -0.2 c -3.1,0 -5.2,2 -5.2,6.1 v 5.8 h -3.5 z"
       id="path12"
       inkscape:connector-curvature="0"
       style="fill:#ffffff" /><path
       class="st0"
       d="M 232.9,73.7 V 65.6 H 231 v -3 h 1.9 v -4.2 h 3.5 v 4.2 h 4.1 v 3 h -4.1 v 7.5 c 0,1.4 0.7,1.9 1.9,1.9 0.8,0 1.5,-0.2 2.2,-0.5 v 2.9 c -0.9,0.5 -1.9,0.8 -3.2,0.8 -2.6,0 -4.4,-1.1 -4.4,-4.5 z"
       id="path14"
       inkscape:connector-curvature="0"
       style="fill:#ffffff" /><path
       class="st0"
       d="m 243.3,62.6 h 3.5 v 2.3 c 1,-1.4 2.3,-2.6 4.7,-2.6 2.2,0 3.7,1.1 4.6,2.7 1.2,-1.6 2.9,-2.7 5.2,-2.7 3.3,0 5.4,2.1 5.4,5.9 V 78 h -3.5 v -8.7 c 0,-2.4 -1.1,-3.7 -3.1,-3.7 -1.9,0 -3.3,1.3 -3.3,3.8 V 78 h -3.5 v -8.7 c 0,-2.4 -1.2,-3.7 -3.1,-3.7 -1.9,0 -3.3,1.5 -3.3,3.8 V 78 h -3.5 V 62.6 Z"
       id="path16"
       inkscape:connector-curvature="0"
       style="fill:#ffffff" /><path
       class="st0"
       d="m 269.4,70.3 v 0 c 0,-4.4 3.1,-8 7.5,-8 4.9,0 7.3,3.8 7.3,8.2 0,0.3 0,0.6 -0.1,1 h -11.3 c 0.4,2.5 2.1,3.9 4.4,3.9 1.7,0 2.9,-0.6 4.1,-1.8 l 2.1,1.8 c -1.5,1.7 -3.5,2.9 -6.3,2.9 -4.3,0 -7.7,-3.2 -7.7,-8 z m 11.3,-1.1 c -0.2,-2.3 -1.6,-4 -3.9,-4 -2.1,0 -3.7,1.7 -4,4 z"
       id="path18"
       inkscape:connector-curvature="0"
       style="fill:#ffffff" /><path
       class="st0"
       d="m 287.1,62.6 h 3.5 V 65 c 1,-1.5 2.4,-2.7 4.8,-2.7 3.5,0 5.5,2.3 5.5,5.9 v 9.7 h -3.5 v -8.7 c 0,-2.4 -1.2,-3.7 -3.3,-3.7 -2,0 -3.5,1.4 -3.5,3.8 v 8.6 h -3.5 z"
       id="path20"
       inkscape:connector-curvature="0"
       style="fill:#ffffff" /><path
       class="st0"
       d="M 304.9,73.7 V 65.6 H 303 v -3 h 1.9 v -4.2 h 3.5 v 4.2 h 4.1 v 3 h -4.1 v 7.5 c 0,1.4 0.7,1.9 1.9,1.9 0.8,0 1.5,-0.2 2.2,-0.5 v 2.9 c -0.9,0.5 -1.9,0.8 -3.2,0.8 -2.6,0 -4.4,-1.1 -4.4,-4.5 z"
       id="path22"
       inkscape:connector-curvature="0"
       style="fill:#ffffff" /><path
       class="st0"
       d="m 322.7,70.4 v 0 c 0,-4.4 3.5,-8.1 8.2,-8.1 4.7,0 8.2,3.6 8.2,7.9 v 0.1 c 0,4.4 -3.5,8 -8.2,8 -4.7,0 -8.2,-3.6 -8.2,-7.9 z m 12.8,0 v 0 c 0,-2.8 -1.9,-5 -4.7,-5 -2.8,0 -4.6,2.2 -4.6,4.9 v 0.1 c 0,2.7 1.9,4.9 4.7,4.9 2.8,-0.1 4.6,-2.3 4.6,-4.9 z"
       id="path24"
       inkscape:connector-curvature="0"
       style="fill:#ffffff" /><path
       class="st0"
       d="m 342.3,65.6 h -1.9 v -2.9 h 1.9 v -1.1 c 0,-1.7 0.4,-3 1.2,-3.8 0.8,-0.8 1.9,-1.2 3.5,-1.2 1.2,0 2.1,0.2 2.8,0.4 v 3 c -0.7,-0.2 -1.3,-0.4 -2.1,-0.4 -1.3,0 -2,0.7 -2,2.3 v 0.8 h 4.1 v 2.9 h -4 v 12.3 h -3.5 z"
       id="path26"
       inkscape:connector-curvature="0"
       style="fill:#ffffff" /><path
       class="st0"
       d="m 146.9,85.6 h 8 c 4.7,0 7.7,2.7 7.7,6.8 v 0.1 c 0,4.6 -3.7,6.9 -8.1,6.9 h -4 v 6.5 h -3.6 z m 7.7,10.6 c 2.7,0 4.4,-1.5 4.4,-3.6 v -0.1 c 0,-2.4 -1.7,-3.6 -4.4,-3.6 h -4.1 v 7.3 z"
       id="path28"
       inkscape:connector-curvature="0"
       style="fill:#ffffff" /><path
       class="st0"
       d="m 165,90.6 h 3.5 v 3.5 c 1,-2.3 2.7,-3.9 5.4,-3.7 V 94 h -0.2 c -3.1,0 -5.2,2 -5.2,6.1 v 5.8 H 165 Z"
       id="path30"
       inkscape:connector-curvature="0"
       style="fill:#ffffff" /><path
       class="st0"
       d="m 176,84.9 h 3.8 v 3.3 H 176 Z m 0.2,5.7 h 3.5 v 15.3 h -3.5 z"
       id="path32"
       inkscape:connector-curvature="0"
       style="fill:#ffffff" /><path
       class="st0"
       d="m 183.5,90.6 h 3.5 v 2.3 c 1,-1.4 2.3,-2.6 4.7,-2.6 2.2,0 3.7,1.1 4.6,2.7 1.2,-1.6 2.9,-2.7 5.2,-2.7 3.3,0 5.4,2.1 5.4,5.9 v 9.8 h -3.5 v -8.7 c 0,-2.4 -1.1,-3.7 -3.1,-3.7 -1.9,0 -3.3,1.3 -3.3,3.8 v 8.6 h -3.5 v -8.7 c 0,-2.4 -1.2,-3.7 -3.1,-3.7 -1.9,0 -3.3,1.4 -3.3,3.8 v 8.6 h -3.5 V 90.6 Z"
       id="path34"
       inkscape:connector-curvature="0"
       style="fill:#ffffff" /><path
       class="st0"
       d="M 219.8,105.9 V 104 c -1,1.2 -2.6,2.2 -5,2.2 -2.9,0 -5.5,-1.7 -5.5,-4.7 v -0.1 c 0,-3.4 2.6,-5 6.2,-5 1.9,0 3,0.3 4.2,0.6 v -0.3 c 0,-2.1 -1.3,-3.3 -3.8,-3.3 -1.7,0 -3,0.4 -4.4,1 l -1,-2.8 c 1.7,-0.8 3.3,-1.3 5.8,-1.3 4.5,0 6.7,2.4 6.7,6.5 v 9.1 z m 0.1,-6.4 c -0.9,-0.3 -2.1,-0.6 -3.5,-0.6 -2.2,0 -3.5,0.9 -3.5,2.4 v 0.1 c 0,1.5 1.3,2.3 3,2.3 2.3,0 4.1,-1.3 4.1,-3.2 v -1 z"
       id="path36"
       inkscape:connector-curvature="0"
       style="fill:#ffffff" /><path
       class="st0"
       d="m 226.8,90.6 h 3.5 v 3.5 c 1,-2.3 2.7,-3.9 5.4,-3.7 V 94 h -0.2 c -3.1,0 -5.2,2 -5.2,6.1 v 5.8 h -3.5 z"
       id="path38"
       inkscape:connector-curvature="0"
       style="fill:#ffffff" /><path
       class="st0"
       d="m 238.1,109.7 1.2,-2.6 c 0.6,0.3 1.3,0.6 2.1,0.6 1,0 1.6,-0.4 2.2,-1.8 l -6.4,-15.3 h 3.7 l 4.4,11.4 4,-11.4 h 3.7 l -6.1,15.8 c -1.2,3.1 -2.6,4.3 -5,4.3 -1.7,0 -2.7,-0.4 -3.8,-1 z"
       id="path40"
       inkscape:connector-curvature="0"
       style="fill:#ffffff" /><path
       class="st0"
       d="m 264,85.6 h 3.6 v 20.3 H 264 Z"
       id="path42"
       inkscape:connector-curvature="0"
       style="fill:#ffffff" /><path
       class="st0"
       d="m 271.9,90.6 h 3.5 V 93 c 1,-1.5 2.4,-2.7 4.8,-2.7 3.5,0 5.5,2.3 5.5,5.9 v 9.7 h -3.5 v -8.7 c 0,-2.4 -1.2,-3.7 -3.3,-3.7 -2,0 -3.5,1.4 -3.5,3.8 v 8.6 h -3.5 z"
       id="path44"
       inkscape:connector-curvature="0"
       style="fill:#ffffff" /><path
       class="st0"
       d="m 288.4,98.3 v 0 c 0,-5.1 3.5,-8 7.1,-8 2.5,0 4.1,1.3 5.2,2.7 v -8.2 h 3.5 V 106 h -3.5 v -2.6 c -1.1,1.6 -2.7,2.9 -5.2,2.9 -3.6,0 -7.1,-2.9 -7.1,-8 z m 12.4,0 v 0 c 0,-3 -2.1,-5 -4.4,-5 -2.4,0 -4.4,1.9 -4.4,4.9 v 0.1 c 0,3 2,4.9 4.4,4.9 2.3,0 4.4,-2 4.4,-4.9 z"
       id="path46"
       inkscape:connector-curvature="0"
       style="fill:#ffffff" /><path
       class="st0"
       d="m 307.8,100.4 v -9.7 h 3.5 v 8.7 c 0,2.4 1.2,3.7 3.3,3.7 2,0 3.5,-1.4 3.5,-3.8 v -8.6 h 3.5 V 106 h -3.5 v -2.4 c -1,1.5 -2.4,2.7 -4.8,2.7 -3.5,0 -5.5,-2.4 -5.5,-5.9 z"
       id="path48"
       inkscape:connector-curvature="0"
       style="fill:#ffffff" /><path
       class="st0"
       d="m 324.1,103.9 1.6,-2.4 c 1.7,1.2 3.5,1.9 5,1.9 1.5,0 2.4,-0.6 2.4,-1.7 v -0.1 c 0,-1.2 -1.6,-1.6 -3.4,-2.1 -2.3,-0.6 -4.8,-1.6 -4.8,-4.5 v 0 c 0,-2.9 2.4,-4.7 5.5,-4.7 1.9,0 4,0.7 5.6,1.7 l -1.4,2.5 c -1.5,-0.9 -3,-1.5 -4.3,-1.5 -1.4,0 -2.1,0.6 -2.1,1.5 v 0.1 c 0,1.1 1.7,1.6 3.5,2.1 2.2,0.7 4.8,1.7 4.8,4.5 v 0.1 c 0,3.2 -2.5,4.8 -5.7,4.8 -2.4,0.1 -4.8,-0.7 -6.7,-2.2 z"
       id="path50"
       inkscape:connector-curvature="0"
       style="fill:#ffffff" /><path
       class="st0"
       d="m 339.8,101.7 v -8.1 h -1.9 v -3 h 1.9 v -4.2 h 3.5 v 4.2 h 4.1 v 3 h -4.1 v 7.5 c 0,1.4 0.7,1.9 1.9,1.9 0.8,0 1.5,-0.2 2.2,-0.5 v 2.9 c -0.9,0.5 -1.9,0.8 -3.2,0.8 -2.5,0 -4.4,-1.1 -4.4,-4.5 z"
       id="path52"
       inkscape:connector-curvature="0"
       style="fill:#ffffff" /><path
       class="st0"
       d="m 350.3,90.6 h 3.5 v 3.5 c 1,-2.3 2.7,-3.9 5.4,-3.7 V 94 H 359 c -3.1,0 -5.2,2 -5.2,6.1 v 5.8 h -3.5 z"
       id="path54"
       inkscape:connector-curvature="0"
       style="fill:#ffffff" /><path
       class="st0"
       d="m 361.2,84.9 h 3.8 v 3.3 h -3.8 z m 0.2,5.7 h 3.5 v 15.3 h -3.5 z"
       id="path56"
       inkscape:connector-curvature="0"
       style="fill:#ffffff" /><path
       class="st0"
       d="m 367.8,98.3 v 0 c 0,-4.4 3.1,-8 7.5,-8 4.9,0 7.3,3.8 7.3,8.2 0,0.3 0,0.6 -0.1,1 h -11.3 c 0.4,2.5 2.1,3.9 4.4,3.9 1.7,0 2.9,-0.6 4.1,-1.8 l 2.1,1.8 c -1.5,1.7 -3.5,2.9 -6.3,2.9 -4.3,0 -7.7,-3.2 -7.7,-8 z m 11.3,-1.1 c -0.2,-2.3 -1.6,-4 -3.9,-4 -2.1,0 -3.7,1.7 -4,4 z"
       id="path58"
       inkscape:connector-curvature="0"
       style="fill:#ffffff" /><path
       class="st0"
       d="m 384.1,103.9 1.6,-2.4 c 1.7,1.2 3.5,1.9 5,1.9 1.5,0 2.4,-0.6 2.4,-1.7 v -0.1 c 0,-1.2 -1.6,-1.6 -3.4,-2.1 -2.3,-0.6 -4.8,-1.6 -4.8,-4.5 v 0 c 0,-2.9 2.4,-4.7 5.5,-4.7 1.9,0 4,0.7 5.6,1.7 l -1.4,2.5 c -1.5,-0.9 -3,-1.5 -4.3,-1.5 -1.4,0 -2.1,0.6 -2.1,1.5 v 0.1 c 0,1.1 1.7,1.6 3.5,2.1 2.2,0.7 4.8,1.7 4.8,4.5 v 0.1 c 0,3.2 -2.5,4.8 -5.7,4.8 -2.4,0.1 -4.8,-0.7 -6.7,-2.2 z"
       id="path60"
       inkscape:connector-curvature="0"
       style="fill:#ffffff" /></g><polygon
     class="st1"
     points="0,53 0,58.1 14.6,58.1 0,70.6 0,75.8 22.9,75.8 22.9,70.7 8.3,70.7 22.9,58.3 22.9,53 "
     id="polygon64"
     style="fill:none"
     transform="matrix(0.43813892,0,0,0.43813892,-9.8052254,-9.8020916)" /><polygon
     class="st1"
     points="99.9,53 99.9,58.1 114.5,58.1 99.9,70.6 99.9,75.8 122.7,75.8 122.7,70.7 108.2,70.7 122.7,58.3 122.7,53 "
     id="polygon66"
     style="fill:none"
     transform="matrix(0.43813892,0,0,0.43813892,-9.8052254,-9.8020916)" /><polygon
     class="st1"
     points="124.2,53 124.2,58.1 138.8,58.1 124.2,70.6 124.2,75.8 147.1,75.8 147.1,70.7 132.5,70.7 147.1,58.3 147.1,53 "
     id="polygon68"
     style="fill:none"
     transform="matrix(0.43813892,0,0,0.43813892,-9.8052254,-9.8020916)" /><polygon
     class="st1"
     points="397,53 397,58.1 411.6,58.1 397,70.6 397,75.8 419.8,75.8 419.8,70.7 405.3,70.7 419.8,58.3 419.8,53 "
     id="polygon70"
     style="fill:none"
     transform="matrix(0.43813892,0,0,0.43813892,-9.8052254,-9.8020916)" /><g
     id="g130"
     transform="matrix(0.43813892,0,0,0.43813892,-9.8052254,-9.8020916)"><g
       id="g102"><path
         class="st0"
         d="M 43.6,87.2 31.2,72.6 H 25.9 V 95.5 H 31 V 80.9 l 12.4,14.6 h 5.3 V 72.6 H 43.6 Z M 92.9,72.6 89.5,87.2 85.9,72.6 H 81 L 77.4,87.1 74,72.6 h -5.4 l 5.9,22.8 h 5.3 L 83.4,81 86.9,95.5 h 5.2 l 0.1,-0.2 6,-22.6 h -5.3 z"
         id="path74"
         inkscape:connector-curvature="0"
         style="fill:#ffffff;fill-opacity:1" /><g
         id="g98"><g
           id="g96"><path
             class="st0"
             d="m 25.4,102.5 v 0 c 0,-2 1.5,-3.7 3.6,-3.7 1.2,0 2,0.3 2.7,1 l -0.8,0.9 c -0.5,-0.5 -1.1,-0.8 -2,-0.8 -1.3,0 -2.3,1.1 -2.3,2.5 v 0 c 0,1.5 1,2.5 2.4,2.5 0.7,0 1.3,-0.2 1.7,-0.5 v -1.3 H 29 V 102 h 3 v 3 c -0.7,0.6 -1.7,1.1 -3,1.1 -2.2,0 -3.6,-1.6 -3.6,-3.6"
             id="path76"
             inkscape:connector-curvature="0"
             style="fill:#ffffff" /><path
             class="st0"
             d="m 32.7,102.5 v 0 c 0,-2 1.5,-3.7 3.7,-3.7 2.2,0 3.7,1.6 3.7,3.6 v 0 c 0,2 -1.5,3.7 -3.7,3.7 -2.1,0 -3.7,-1.6 -3.7,-3.6 m 6.1,0 v 0 c 0,-1.4 -1,-2.5 -2.4,-2.5 -1.4,0 -2.4,1.1 -2.4,2.5 v 0 c 0,1.4 1,2.5 2.4,2.5 1.4,0 2.4,-1.2 2.4,-2.5"
             id="path78"
             inkscape:connector-curvature="0"
             style="fill:#ffffff" /><polygon
             class="st0"
             points="40,98.9 41.4,98.9 43.6,104.3 45.7,98.9 47,98.9 44.1,106 43,106 "
             id="polygon80"
             style="fill:#ffffff" /><polygon
             class="st0"
             points="49.1,101.9 52.6,101.9 52.6,103 49.1,103 49.1,104.9 53.2,104.9 53.2,106 47.9,106 47.9,98.9 53.1,98.9 53.1,100 49.1,100 "
             id="polygon82"
             style="fill:#ffffff" /><path
             class="st0"
             d="m 54.4,98.9 h 3.2 c 0.9,0 1.6,0.3 2,0.7 0.4,0.4 0.6,0.9 0.6,1.5 v 0 c 0,1.2 -0.7,1.9 -1.7,2.1 l 1.9,2.7 h -1.5 l -1.7,-2.5 h -1.6 v 2.5 h -1.2 z m 3,3.5 c 0.9,0 1.5,-0.5 1.5,-1.2 v 0 c 0,-0.8 -0.5,-1.2 -1.5,-1.2 h -1.8 v 2.4 z"
             id="path84"
             inkscape:connector-curvature="0"
             style="fill:#ffffff" /><polygon
             class="st0"
             points="62.5,106 61.2,106 61.2,98.9 62.4,98.9 66.2,103.8 66.2,98.9 67.4,98.9 67.4,106 66.3,106 62.5,100.9 "
             id="polygon86"
             style="fill:#ffffff" /><polygon
             class="st0"
             points="74.3,98.9 75.6,98.9 75.6,106 74.4,106 74.4,100.9 72.1,104.2 69.9,100.9 69.9,106 68.7,106 68.7,98.9 70,98.9 72.1,102.3 "
             id="polygon88"
             style="fill:#ffffff" /><polygon
             class="st0"
             points="78,101.9 81.6,101.9 81.6,103 78,103 78,104.9 82.1,104.9 82.1,106 76.8,106 76.8,98.9 82,98.9 82,100 78,100 "
             id="polygon90"
             style="fill:#ffffff" /><polygon
             class="st0"
             points="84.5,106 83.3,106 83.3,98.9 84.5,98.9 88.2,103.8 88.2,98.9 89.5,98.9 89.5,106 88.4,106 84.5,100.9 "
             id="polygon92"
             style="fill:#ffffff" /><polygon
             class="st0"
             points="96.2,100.1 94,100.1 94,106 92.7,106 92.7,100.1 90.5,100.1 90.5,98.9 96.2,98.9 "
             id="polygon94"
             style="fill:#ffffff" /></g></g><path
         class="st0"
         d="m 50.2,92.3 3,-3.6 c 2.1,1.7 4.3,2.8 6.9,2.8 2.1,0 3.3,-0.8 3.3,-2.2 v -0.1 c 0,-1.3 -0.8,-2 -4.7,-3 C 54,85 51,83.7 51,79.1 V 79 c 0,-4.2 3.4,-7 8.1,-7 3.4,0 6.3,1.1 8.6,3 L 65,78.8 c -2.1,-1.4 -4.1,-2.3 -6,-2.3 -2,0 -3,0.9 -3,2 v 0.1 c 0,1.5 1,2 5,3.1 4.7,1.2 7.4,2.9 7.4,7 v 0.1 c 0,4.6 -3.5,7.2 -8.5,7.2 -3.4,0 -7,-1.2 -9.7,-3.7 z"
         id="path100"
         inkscape:connector-curvature="0"
         style="fill:#ffffff" /></g><path
       class="st3"
       d="m 38.1,29.2 c -0.5,0 -0.8,0.3 -0.9,0.9 0,0 -0.1,0.8 -0.2,2.2 -0.1,1.3 -0.3,3.3 -0.3,5.8 0,5.5 0.7,13.3 4.1,19.3 2.6,4.6 6.3,7.1 10.5,7.3 -1.6,-1.2 -3.5,-3.3 -4.6,-6.5 -1,-3 -1.5,-6.6 -1.5,-10.6 0,-5.6 0.9,-10.3 1.2,-11.6 0,0 0,-0.1 0,-0.1 0.2,-0.8 0.6,-1.4 1.2,-1.7 -4.2,-2.7 -7.9,-4.3 -8.6,-4.6 -0.4,-0.2 -0.6,-0.3 -0.6,-0.3 v 0 0 c 0,0 -0.1,-0.1 -0.3,-0.1 z"
       id="path104"
       inkscape:connector-curvature="0"
       style="fill:#fffff9;fill-opacity:1" /><path
       class="st3"
       d="m 48.7,35.7 c -0.3,0 -0.4,0.3 -0.5,0.6 0,0.1 -0.1,0.4 -0.2,0.9 -0.1,0.4 -0.2,1.3 -0.4,2.5 -0.3,1.9 -0.6,4.8 -0.6,8 0,3.9 0.5,7.3 1.4,10.1 1.7,5.4 6.6,7.8 9.6,7.8 v 0 c 0.6,0 1.2,-0.1 1.6,-0.3 0.2,-0.1 0.5,-0.2 0.7,-0.4 -0.2,-0.3 -0.4,-0.6 -0.6,-1 -0.6,-1.2 -0.9,-2.7 -0.9,-4.5 0,-2.2 0.5,-4.8 1.4,-7.8 0.1,-0.3 0.2,-0.5 0.3,-0.8 0,-0.1 0.1,-0.2 0.1,-0.3 C 57.5,42.7 50.2,36.8 49.4,36.1 49.1,35.9 49,35.8 49,35.8 48.9,35.7 48.8,35.7 48.7,35.7 Z"
       id="path108"
       inkscape:connector-curvature="0"
       style="fill:#fffff9;fill-opacity:1" /><path
       class="st3"
       d="m 61.4,22.9 c -0.2,0 -0.4,0.1 -0.5,0.4 0,0 -0.2,0.2 -0.4,0.6 -0.4,0.6 -0.7,1.2 -1.1,1.8 -0.8,1.4 -2,3.6 -3.2,6.4 -0.8,1.9 -1.6,3.9 -2.3,5.9 2.3,2.3 5.5,6 7.6,10.4 1.6,-3.5 4.1,-6.9 7.3,-10.3 C 66.6,31.4 63.5,25.9 62.3,23.9 62,23.5 61.9,23.3 61.9,23.3 61.6,22.9 61.4,22.9 61.4,22.9 Z"
       id="path110"
       inkscape:connector-curvature="0"
       style="fill:#fffff9;fill-opacity:1" /><path
       class="st3"
       d="m 84.6,29.2 c -0.1,0 -0.2,0 -0.4,0.1 v 0 0 c 0,0 -0.2,0.1 -0.6,0.3 -0.4,0.2 -0.9,0.4 -1.6,0.7 l -0.2,0.1 c -2.1,1 -4.1,2.1 -6,3.3 -0.2,0.1 -0.4,0.3 -0.7,0.4 0.6,0.3 1.1,0.9 1.2,1.7 0,0 0,0 0,0.1 0.3,1.3 1.2,6.1 1.2,11.6 0,4 -0.5,7.6 -1.4,10.6 -1,3.2 -2.9,5.2 -4.5,6.5 4.1,-0.2 7.7,-2.8 10.3,-7.3 C 85.3,51.3 86,43.5 86,38 86,36.1 85.9,34.1 85.7,32.2 85.6,30.8 85.5,30 85.5,30 85.4,29.5 85.1,29.3 84.6,29.2 Z"
       id="path112"
       inkscape:connector-curvature="0"
       style="fill:#fffff9;fill-opacity:1" /><path
       class="st3"
       d="m 73.3,24.6 c -0.1,0 -0.1,0 -0.2,0 v 0 0 c -0.1,0 -0.3,0.1 -0.4,0.2 v 0 0 c 0,0 -0.9,0.6 -2.3,1.5 -0.8,0.5 -2,1.5 -3.5,2.7 1.1,2.2 2.1,4.5 2.9,6.8 1.8,-1.4 3.7,-2.7 5.9,-4.1 -0.6,-3.2 -1.3,-5.5 -1.6,-6.4 0,0 0,-0.1 0,-0.1 -0.2,-0.4 -0.5,-0.6 -0.8,-0.6 z"
       id="path114"
       inkscape:connector-curvature="0"
       style="fill:#fffff9;fill-opacity:1" /><path
       class="st3"
       d="m 49.5,24.6 c -0.4,0 -0.7,0.2 -0.8,0.7 0,0 0,0 0,0.1 -0.3,0.9 -1,3.2 -1.6,6.4 2.2,1.3 4.2,2.7 5.9,4.1 0.8,-2.2 1.8,-4.5 2.9,-6.8 -1.2,-1 -2.3,-1.9 -3.5,-2.7 -1.4,-1 -2.3,-1.5 -2.3,-1.5 v 0 0 C 50,24.8 49.8,24.8 49.7,24.7 v 0 0 c -0.1,-0.1 -0.2,-0.1 -0.2,-0.1 z"
       id="path116"
       inkscape:connector-curvature="0"
       style="fill:#fffff9;fill-opacity:1" /><path
       class="st3"
       d="m 29.5,39.5 c -1.2,0 -1.9,0 -1.9,0 -0.5,0 -0.9,0.3 -1.2,0.7 -0.2,0.3 -0.3,0.6 -0.2,0.9 0.1,0.8 0.6,3.8 4.2,8.3 1.8,-0.9 3.6,-1.7 5.4,-2.4 -0.4,-2.2 -0.6,-4.7 -0.6,-7.3 -2.2,-0.2 -3.9,-0.3 -5,-0.3 -0.3,0.1 -0.5,0.1 -0.7,0.1 z"
       id="path118"
       inkscape:connector-curvature="0"
       style="fill:#fffff9;fill-opacity:1" /><path
       class="st3"
       d="m 93.2,39.5 c -0.2,0 -0.4,0 -0.6,0 -1.1,0 -2.8,0.1 -5,0.3 -0.1,2.5 -0.3,5 -0.6,7.3 1.8,0.7 3.6,1.5 5.4,2.4 3.6,-4.5 4.1,-7.5 4.2,-8.3 0,-0.3 -0.1,-0.7 -0.2,-0.9 -0.3,-0.4 -0.7,-0.7 -1.2,-0.7 -0.1,-0.1 -0.8,-0.1 -2,-0.1 z"
       id="path120"
       inkscape:connector-curvature="0"
       style="fill:#fffff9;fill-opacity:1" /><path
       class="st3"
       d="m 86.7,48.7 c -0.7,3.7 -1.9,6.9 -3.4,9.6 -1.6,2.8 -3.6,4.9 -5.9,6.3 17,-0.9 21.8,-6.4 22.3,-7 v 0 c 0.2,-0.3 0.3,-0.5 0.3,-0.8 0,-0.5 -0.2,-1 -0.6,-1.2 0,0 -0.2,-0.1 -0.6,-0.4 v 0 0 C 98.5,55 98.1,54.7 97.6,54.4 97.5,54.3 97.3,54.2 97.2,54.1 96,53.3 94,52.1 91.6,50.9 89.9,50 88.3,49.3 86.7,48.7 Z"
       id="path122"
       inkscape:connector-curvature="0"
       style="fill:#fffff9;fill-opacity:1" /><path
       class="st3"
       d="m 36.1,48.7 c -5.7,2.2 -10.3,5.2 -12.1,6.4 -0.3,0.2 -0.5,0.4 -0.6,0.4 -0.4,0.3 -0.6,0.7 -0.6,1.2 0,0.3 0.1,0.6 0.3,0.8 0,0 0,0 0,0 0,0 0.1,0.1 0.1,0.1 0,0 0,0.1 0.1,0.1 0.1,0.1 0.4,0.4 0.8,0.8 0.7,0.6 2,1.5 4.1,2.5 4.3,1.9 10.2,3.2 17.2,3.6 -2.3,-1.4 -4.3,-3.6 -5.9,-6.3 -1.6,-2.7 -2.7,-5.9 -3.4,-9.6 z"
       id="path124"
       inkscape:connector-curvature="0"
       style="fill:#fffff9;fill-opacity:1" /><path
       class="st3"
       d="m 84.5,65.8 c -0.9,0 -2.2,0.2 -4.1,0.4 -0.3,0 -0.6,0.1 -0.9,0.1 -0.9,0.1 -1.9,0.2 -3.3,0.2 -0.8,0 -1.7,0 -2.6,0 h -0.1 c -0.9,0 -1.9,0 -2.9,0 -2.1,0 -4.8,0.1 -7.1,0.7 -0.1,0 -0.2,0.2 -0.2,0.2 0,0.1 0.2,0.1 0.3,0.1 0,0 0.1,0 0.1,0 0.9,-0.1 1.9,-0.1 2.7,-0.1 3.1,0 5.2,0.5 7.3,1.1 1.9,0.5 3.7,0.9 6.3,0.9 2.7,0 4.8,-0.6 5.7,-1.5 0.3,-0.3 0.4,-0.7 0.4,-1 -0.2,-0.8 -0.4,-1.1 -1.6,-1.1 z"
       id="path126"
       inkscape:connector-curvature="0"
       style="fill:#fffff9;fill-opacity:1" /><path
       class="st3"
       d="m 38.2,65.8 c -1.2,0 -1.4,0.3 -1.5,1 0,0.4 0.1,0.7 0.4,1 0.9,1 3,1.5 5.7,1.5 2.5,0 4.3,-0.5 6.3,-0.9 2,-0.5 4.2,-1.1 7.3,-1.1 0.9,0 1.8,0 2.7,0.1 0,0 0.1,0 0.1,0 0.1,0 0.3,0 0.3,-0.1 0,-0.1 -0.1,-0.2 -0.2,-0.2 -2.4,-0.7 -5.1,-0.7 -7.1,-0.7 v 0 c -1,0 -2,0 -2.9,0 h -0.1 c -0.9,0 -1.8,0 -2.6,0 -1.4,0 -2.4,-0.1 -3.3,-0.2 -0.3,0 -0.6,-0.1 -0.9,-0.1 -2.1,-0.1 -3.3,-0.3 -4.2,-0.3 z"
       id="path128"
       inkscape:connector-curvature="0"
       style="fill:#fffff9;fill-opacity:1" /><path
       class="st3"
       d="m 74.099999,35.7 c -0.1,0 -0.2,0 -0.4,0.2 0,0 -0.1,0.1 -0.4,0.3 -0.2,0.2 -0.6,0.5 -1.1,0.9 -0.6,0.6 -1.9,1.8 -3.4,3.4 -2.4,2.7 -5.5,6.8 -7,11.7 -0.9,2.8 -1.3,5.3 -1.3,7.299999 0,1.500002 0.2,2.8 0.7,3.8 0.5,1.000001 1.2,1.7 2.1,2.100001 0.4,0.200005 0.9,0.300001 1.6,0.300001 v 0 c 2.9,0 7.7,-2.400002 9.4,-7.800001 0.9,-2.9 1.3,-6.3 1.3,-10.1 0,-4.8 -0.7,-8.9 -1,-10.5 -0.1,-0.6 -0.2,-0.9 -0.2,-0.9 0.1,-0.4 -0.1,-0.7 -0.3,-0.7 z"
       id="path106"
       inkscape:connector-curvature="0"
       style="fill:#fffff9;stroke-width:1;fill-opacity:1" /></g><polygon
     class="st1"
     points="72.8,0 67.7,0 67.7,14.6 55.2,0 50,0 50,22.9 55.1,22.9 55.1,8.3 67.5,22.9 72.8,22.9 "
     id="polygon132"
     style="fill:none"
     transform="matrix(0.43813892,0,0,0.43813892,-9.8052254,-9.8020916)" /><polygon
     class="st1"
     points="72.8,106 67.7,106 67.7,120.6 55.2,106 50,106 50,128.8 55.1,128.8 55.1,114.3 67.5,128.8 72.8,128.8 "
     id="polygon134"
     style="fill:none"
     transform="matrix(0.43813892,0,0,0.43813892,-9.8052254,-9.8020916)" /><path
     class="st0"
     d="m 44.304932,36.640633 c -0.175256,0 -0.306698,-0.131441 -0.306698,-0.306697 V 3.2982624 c 0,-0.175256 0.131442,-0.306697 0.306698,-0.306697 0.175255,0 0.306697,0.131441 0.306697,0.306697 V 36.290122 c 0,0.175256 -0.131442,0.350511 -0.306697,0.350511"
     id="path136"
     inkscape:connector-curvature="0"
     style="fill:#ffffff;stroke-width:0.43813893" /></svg>